HIERARCHY
ROOT Hips
{
	OFFSET 0.000000 97.420761 0.000000
	CHANNELS 6 Xposition Yposition Zposition Xrotation Yrotation Zrotation
	JOINT RightUpLeg
	{
		OFFSET -8.571318 0.002251 -0.000250
		CHANNELS 6 Xposition Yposition Zposition Xrotation Yrotation Zrotation
		JOINT RightLeg
		{
			OFFSET 0.000000 -44.326080 -0.000105
			CHANNELS 6 Xposition Yposition Zposition Xrotation Yrotation Zrotation
			JOINT RightFoot
			{
				OFFSET 0.000000 -43.324329 -0.000176
				CHANNELS 6 Xposition Yposition Zposition Xrotation Yrotation Zrotation
				JOINT RightToeBase
				{
					OFFSET 0.000000 -7.938133 18.050686
					CHANNELS 6 Xposition Yposition Zposition Xrotation Yrotation Zrotation
					End Site
					{
						OFFSET 0.000000 0.000000 19.719055
					}
				}
			}
		}
	}
	JOINT LeftUpLeg
	{
		OFFSET 8.571318 -0.000084 0.000009
		CHANNELS 6 Xposition Yposition Zposition Xrotation Yrotation Zrotation
		JOINT LeftLeg
		{
			OFFSET 0.000000 -44.326080 -0.000105
			CHANNELS 6 Xposition Yposition Zposition Xrotation Yrotation Zrotation
			JOINT LeftFoot
			{
				OFFSET 0.000000 -43.324329 -0.000176
				CHANNELS 6 Xposition Yposition Zposition Xrotation Yrotation Zrotation
				JOINT LeftToeBase
				{
					OFFSET 0.000000 -7.938133 18.050686
					CHANNELS 6 Xposition Yposition Zposition Xrotation Yrotation Zrotation
					End Site
					{
						OFFSET 0.000000 0.000000 19.719055
					}
				}
			}
		}
	}
	JOINT Spine
	{
		OFFSET 0.000000 10.422829 -1.158092
		CHANNELS 6 Xposition Yposition Zposition Xrotation Yrotation Zrotation
		JOINT Spine1
		{
			OFFSET 0.000000 11.587624 0.000000
			CHANNELS 3 Xrotation Yrotation Zrotation
			JOINT Spine2
			{
				OFFSET 0.000000 10.579559 -0.000443
				CHANNELS 6 Xposition Yposition Zposition Xrotation Yrotation Zrotation
				JOINT Spine3
				{
					OFFSET 0.000000 10.567749 -0.000444
					CHANNELS 6 Xposition Yposition Zposition Xrotation Yrotation Zrotation
					JOINT LeftShoulder
					{
						OFFSET 3.218383 8.290512 0.000000
						CHANNELS 6 Xposition Yposition Zposition Xrotation Yrotation Zrotation
						JOINT LeftArm
						{
							OFFSET 15.038529 0.000000 0.000000
							CHANNELS 3 Xrotation Yrotation Zrotation
							JOINT LeftForeArm
							{
								OFFSET 32.129166 0.000000 0.000000
								CHANNELS 3 Xrotation Yrotation Zrotation
								JOINT LeftHand
								{
									OFFSET 26.275406 0.000000 0.000000
									CHANNELS 3 Xrotation Yrotation Zrotation
									End Site
									{
										OFFSET 26.275406 0.000000 0.000000
									}
								}
							}
						}
					}
					JOINT RightShoulder
					{
						OFFSET -3.218383 8.290512 0.000000
						CHANNELS 6 Xposition Yposition Zposition Xrotation Yrotation Zrotation
						JOINT RightArm
						{
							OFFSET -15.038529 0.000000 0.000000
							CHANNELS 3 Xrotation Yrotation Zrotation
							JOINT RightForeArm
							{
								OFFSET -32.129166 0.000000 0.000000
								CHANNELS 3 Xrotation Yrotation Zrotation
								JOINT RightHand
								{
									OFFSET -26.275406 0.000000 0.000000
									CHANNELS 3 Xrotation Yrotation Zrotation
									End Site
									{
										OFFSET -26.275406 0.000000 0.000000
									}
								}
							}
						}
					}
					JOINT Neck
					{
						OFFSET 0.000000 14.789474 0.000000
						CHANNELS 6 Xposition Yposition Zposition Xrotation Yrotation Zrotation
						JOINT Head
						{
							OFFSET 0.000000 9.838806 0.000953
							CHANNELS 6 Xposition Yposition Zposition Xrotation Yrotation Zrotation
							End Site
							{
								OFFSET 0.000000 9.838806 0.000000
							}
						}
					}
				}
			}
		}
	}
}
MOTION
Frames: 4
Frame Time: 0.016667
-116.249481 14.474312 91.123581 -105.314038 -5.753132 21.575972 -8.571312 0.002251 -0.000247 -28.298526 -2.222143 -3.754386 -0.000020 -44.326084 -0.000106 119.262753 -0.426679 -0.614319 -0.000000 -43.324326 -0.000198 10.177120 4.186252 7.674252 -0.000011 -7.938135 18.050709 0.000000 0.000001 0.000000 8.571321 -0.000074 0.000014 -36.563635 -1.187482 1.800947 0.000010 -44.326084 -0.000106 129.725974 0.761122 1.029204 -0.000008 -43.324326 -0.000177 -0.882437 -13.544517 -6.094395 -0.000009 -7.938135 18.050671 0.000001 -0.000001 -0.000000 0.000001 10.422835 -1.158090 2.937983 -1.377770 -1.664303 -4.515477 -0.522721 -0.805568 0.000006 10.579545 -0.000442 1.304956 -0.522639 -0.805624 0.000011 10.567735 -0.000441 6.815940 -0.449745 -0.562550 3.218397 8.290479 0.000003 -11.663995 4.767093 -2.117402 19.461364 -15.828866 -92.689328 54.896163 -14.837225 -6.036472 9.815689 -3.374879 5.150215 -3.218360 8.290503 -0.000003 -13.942108 -6.201154 2.268519 21.823535 20.837459 71.853563 48.292453 6.435450 10.837769 10.749554 6.451050 -5.116995 0.000021 14.789461 0.000000 5.174950 0.871310 -0.199930 0.000011 9.838807 0.000958 -26.423277 1.655257 0.083163 
-116.248398 14.452927 91.126915 -105.295310 -5.759369 21.592902 -8.571320 0.002249 -0.000249 -28.328196 -2.227129 -3.671182 -0.000010 -44.326077 -0.000110 119.250540 -0.442682 -0.653926 0.000011 -43.324326 -0.000196 10.182168 4.150203 7.659958 -0.000018 -7.938133 18.050667 0.000000 0.000001 0.000000 8.571321 -0.000093 0.000011 -36.467609 -1.220207 1.798189 0.000018 -44.326080 -0.000091 129.651894 0.760687 0.964279 0.000008 -43.324322 -0.000181 -0.901103 -13.324993 -6.085382 0.000009 -7.938137 18.050673 -0.000000 -0.000000 -0.000000 0.000003 10.422827 -1.158094 2.949283 -1.379488 -1.672243 -4.510421 -0.523027 -0.809192 -0.000015 10.579556 -0.000442 1.310012 -0.522944 -0.809248 -0.000010 10.567750 -0.000441 6.819731 -0.450236 -0.565234 3.218397 8.290503 0.000000 -11.697385 4.780676 -2.119170 19.467277 -15.866859 -92.675135 54.889702 -14.848498 -6.018853 9.817658 -3.380258 5.157694 -3.218380 8.290515 -0.000002 -13.965833 -6.206029 2.281539 21.794333 20.818171 71.854096 48.323885 6.424714 10.837325 10.750759 6.457034 -5.091225 0.000016 14.789457 -0.000002 5.117186 0.876697 -0.206408 0.000001 9.838808 0.000955 -26.530565 1.668056 0.075046 
-116.251434 14.435623 91.130669 -105.277811 -5.773165 21.609689 -8.571313 0.002253 -0.000249 -28.353075 -2.229888 -3.588923 0.000014 -44.326084 -0.000099 119.238874 -0.468325 -0.696662 0.000008 -43.324337 -0.000177 10.177709 4.114044 7.661797 0.000002 -7.938130 18.050694 0.000000 0.000001 -0.000000 8.571329 -0.000086 0.000015 -36.392727 -1.296333 1.813767 0.000009 -44.326096 -0.000106 129.553485 0.722873 0.882376 0.000000 -43.324329 -0.000183 -0.856160 -13.241680 -6.033840 0.000004 -7.938137 18.050695 -0.000000 0.000001 -0.000000 0.000008 10.422832 -1.158091 2.955602 -1.379889 -1.682880 -4.507574 -0.522634 -0.813927 -0.000004 10.579552 -0.000442 1.312859 -0.522550 -0.813980 0.000028 10.567747 -0.000440 6.821867 -0.450287 -0.568801 3.218401 8.290486 0.000000 -11.723154 4.792307 -2.112310 19.472862 -15.894740 -92.664002 54.866531 -14.856442 -6.013018 9.817892 -3.385270 5.159887 -3.218375 8.290506 -0.000001 -13.983373 -6.206279 2.297183 21.772760 20.815712 71.857292 48.335381 6.410830 10.836988 10.747657 6.466257 -5.046099 0.000009 14.789474 0.000002 5.074863 0.881050 -0.212538 0.000017 9.838810 0.000954 -26.609165 1.678866 0.066842 
-116.257690 14.419861 91.135002 -105.259683 -5.792715 21.626025 -8.571323 0.002242 -0.000248 -28.376979 -2.232037 -3.502769 0.000003 -44.326084 -0.000102 119.226457 -0.501240 -0.742967 0.000007 -43.324329 -0.000186 10.167180 4.076111 7.672965 0.000006 -7.938131 18.050669 -0.000000 -0.000001 -0.000000 8.571321 -0.000092 0.000014 -36.322994 -1.400269 1.836918 -0.000005 -44.326073 -0.000096 129.433806 0.658264 0.784906 -0.000018 -43.324329 -0.000180 -0.771346 -13.209767 -5.953989 0.000001 -7.938132 18.050674 -0.000000 0.000001 -0.000000 -0.000003 10.422827 -1.158091 2.959109 -1.379226 -1.695206 -4.505973 -0.521692 -0.819343 0.000005 10.579554 -0.000443 1.314459 -0.521608 -0.819395 -0.000001 10.567740 -0.000445 6.823067 -0.449984 -0.572915 3.218370 8.290500 0.000001 -11.745811 4.803612 -2.099662 19.478713 -15.919173 -92.654255 54.833879 -14.863033 -6.013210 9.817499 -3.391057 5.157698 -3.218401 8.290520 -0.000002 -13.998578 -6.203965 2.315787 21.753323 20.819649 71.862230 48.338106 6.393303 10.837745 10.740886 6.478985 -4.982102 -0.000006 14.789478 0.000000 5.038713 0.885119 -0.219025 -0.000020 9.838806 0.000957 -26.676292 1.689360 0.057793 
